<svg width="428" height="118" viewBox="0 0 428 118" fill="none" xmlns="http://www.w3.org/2000/svg">
<path d="M369.75 76V0.47998H373.59V76H369.75ZM377.43 76V0.47998H381.27V76H377.43ZM385.11 76V0.47998H388.95V76H385.11ZM400.47 76V0.47998H411.99V76H400.47ZM415.83 76V0.47998H427.35V76H415.83ZM401.75 117.344C399.361 117.344 397.313 116.704 395.606 115.424C393.899 114.229 392.577 112.48 391.638 110.176C390.699 107.957 390.23 105.355 390.23 102.368C390.23 98.4427 390.827 95.328 392.022 93.024C393.217 90.72 394.667 89.0987 396.374 88.16C398.081 87.3067 399.787 86.88 401.494 86.88C403.286 86.88 404.993 87.3493 406.614 88.288C408.321 89.1413 409.558 90.336 410.326 91.872L408.022 93.664L407.638 94.048L407.51 93.792C407.51 93.536 407.467 93.28 407.382 93.024C407.211 92.8533 406.955 92.5547 406.614 92.128C405.846 91.2746 405.078 90.6773 404.31 90.336C403.542 89.9946 402.603 89.824 401.494 89.824C399.19 89.824 397.27 90.72 395.734 92.512C394.283 94.3893 393.558 97.4187 393.558 101.6C393.558 105.696 394.283 108.853 395.734 111.072C397.185 113.291 399.19 114.4 401.75 114.4C402.689 114.4 403.67 114.229 404.694 113.888C405.803 113.632 406.699 113.205 407.382 112.608V105.568H402.006V102.624H410.454V114.272C407.638 116.32 404.737 117.344 401.75 117.344Z" fill="white"/>
<path d="M308.25 76V0.47998H312.09V76H308.25ZM315.93 76V0.47998H327.45V76H315.93ZM331.29 76V0.47998H335.13V76H331.29ZM346.65 76V0.47998H358.17V76H346.65ZM362.01 76V0.47998H365.85V76H362.01ZM330.906 114.016H336.794V89.952H331.29V87.136H346.01V89.952H340.122V114.016H346.266V116.832H330.906V114.016Z" fill="white"/>
<path d="M246.75 76V0.47998H250.59V76H246.75ZM254.43 76V0.47998H265.95V76H254.43ZM269.79 76V0.47998H273.63V76H269.79ZM285.15 76V0.47998H288.99V76H285.15ZM292.83 76V0.47998H304.35V76H292.83ZM267.87 87.136H276.318C279.561 87.136 281.993 87.776 283.614 89.056C285.321 90.336 286.174 92.128 286.174 94.432C286.174 95.8827 285.79 97.2053 285.022 98.4C284.169 99.5947 283.059 100.448 281.694 100.96C283.401 101.557 284.766 102.539 285.79 103.904C286.814 105.355 287.326 106.891 287.326 108.512C287.326 111.072 286.387 113.12 284.51 114.656C282.718 116.107 279.945 116.832 276.19 116.832H267.87V87.136ZM275.806 99.424C280.499 99.424 282.846 97.8453 282.846 94.688C282.846 93.3227 282.291 92.2133 281.182 91.36C280.158 90.4213 278.537 89.952 276.318 89.952H271.07V99.424H275.806ZM276.83 113.888C281.438 113.888 283.742 112.011 283.742 108.256C283.742 104.245 281.139 102.24 275.934 102.24H271.07V113.888H276.83Z" fill="white"/>
<path d="M185.25 76V0.47998H189.09V76H185.25ZM192.93 76V0.47998H204.45V76H192.93ZM208.29 76V0.47998H212.13V76H208.29ZM215.97 76V0.47998H219.81V76H215.97ZM231.33 76V0.47998H242.85V76H231.33ZM207.266 87.136H211.106V87.52C210.935 87.6907 210.807 87.904 210.722 88.16C210.722 88.3307 210.722 88.7146 210.722 89.312V114.016H224.93V116.832H207.266V87.136Z" fill="white"/>
<path d="M123.75 76V0.47998H135.27V76H123.75ZM139.11 76V0.47998H142.95V76H139.11ZM146.79 76V0.47998H150.63V76H146.79ZM162.15 76V0.47998H165.99V76H162.15ZM169.83 76V0.47998H181.35V76H169.83ZM159.206 108.128H149.606L146.662 116.832H143.334L154.214 86.624H154.598L165.606 116.832H162.15L159.206 108.128ZM158.31 105.568L154.47 94.304L150.502 105.568H158.31Z" fill="white"/>
<path d="M62.25 76V0.47998H73.77V76H62.25ZM77.61 76V0.47998H81.45V76H77.61ZM85.29 76V0.47998H96.81V76H85.29ZM108.33 76V0.47998H112.17V76H108.33ZM116.01 76V0.47998H119.85V76H116.01ZM83.882 87.136H102.058V90.08H86.954V99.808H99.498V102.88H86.954V113.888H101.93V116.832H83.882V87.136Z" fill="white"/>
<path d="M0.75 76V0.47998H12.27V76H0.75ZM16.11 76V0.47998H19.95V76H16.11ZM23.79 76V0.47998H27.63V76H23.79ZM31.47 76V0.47998H42.99V76H31.47ZM54.51 76V0.47998H58.35V76H54.51ZM22.254 87.136H30.958C34.3713 87.136 36.846 87.904 38.382 89.44C40.0033 90.8907 40.814 92.9813 40.814 95.712C40.814 97.4187 40.2593 99.04 39.15 100.576C38.0407 102.112 36.59 103.136 34.798 103.648L41.71 116.832H37.998L31.342 103.776H25.582V116.832H22.254V87.136ZM31.342 100.832C33.39 100.832 34.926 100.363 35.95 99.424C36.8887 98.5707 37.358 97.3333 37.358 95.712C37.358 94.0907 36.8887 92.768 35.95 91.744C34.926 90.8053 33.39 90.336 31.342 90.336H25.582V100.832H31.342Z" fill="white"/>
</svg>
